<svg width="832" height="832" viewBox="0 0 832 832" fill="none" xmlns="http://www.w3.org/2000/svg">
<path d="M301.716 75.429V301.717H75.43V75.43H301.717L301.716 75.429ZM342.86 0H34.285C15.43 0 0 15.429 0 34.285V342.86C0 361.718 15.429 377.146 34.285 377.146H342.858C361.715 377.146 377.144 361.717 377.144 342.86V34.285C377.144 15.43 361.716 0 342.86 0ZM150.859 188.574C150.859 209.403 167.744 226.288 188.573 226.288C209.403 226.288 226.288 209.403 226.288 188.574C226.288 167.744 209.402 150.859 188.573 150.859C167.744 150.859 150.859 167.745 150.859 188.574ZM756.57 75.429V301.717H530.284V75.43L756.57 75.429ZM797.713 0H489.14C470.283 0 454.855 15.429 454.855 34.285V342.86C454.855 361.718 470.284 377.146 489.14 377.146H797.713C816.571 377.146 831.999 361.717 831.999 342.86V34.285C831.999 15.43 816.57 0 797.713 0ZM605.713 188.574C605.713 209.403 622.598 226.288 643.427 226.288C664.256 226.288 681.141 209.403 681.141 188.574C681.141 167.744 664.256 150.859 643.427 150.859C622.597 150.859 605.712 167.745 605.712 188.574H605.713ZM301.715 530.283V756.57H75.43V530.283H301.717H301.715ZM342.859 454.853H34.285C15.43 454.854 0 470.284 0 489.14V797.714C0 816.571 15.429 832 34.285 832H342.858C361.716 832 377.144 816.571 377.144 797.714V489.14C377.144 470.284 361.716 454.855 342.86 454.855L342.859 454.853ZM150.859 643.427C150.859 664.257 167.744 681.142 188.573 681.142C209.403 681.142 226.288 664.256 226.288 643.427C226.288 622.598 209.402 605.713 188.573 605.713C167.744 605.713 150.859 622.598 150.859 643.427Z" fill="#429EF0"/>
<path d="M832 637.472C832 626.642 823.389 617.783 812.561 617.559C800.318 617.307 784.33 617.044 770.811 617.044L769.252 587.044V563.306C769.252 504.408 712.901 456 643.516 456C574.408 456 518.172 503.672 517.727 562.765C517.715 563.001 517.751 587.046 517.751 587.046L518.137 617.046C504.495 617.046 487.802 617.039 475.007 617.032C463.956 617.026 455 625.983 455 637.034V792.509C455 814.791 477.118 832 503.137 832H785.81C811.83 832 831.999 814.791 831.999 792.509L832 637.472ZM612.525 696.686C612.525 681.83 626.859 669.786 644.206 669.786C661.551 669.786 675.316 681.83 675.316 696.686C675.316 706.635 668.852 715.302 659.313 719.954V737.032C659.313 744.46 652.175 750.48 643.501 750.48C634.828 750.48 627.687 744.46 627.687 737.032V719.954C620.159 715.302 612.525 706.635 612.525 696.686ZM580.504 563.292C580.504 534.489 608.879 509.795 643.516 509.795C678.061 509.795 706.297 532.7 706.446 562.254C706.446 562.332 706.501 563.304 706.501 563.304V617.044H580.499L580.504 563.292Z" fill="#429EF0"/>
</svg>
