<?xml version="1.0" encoding="utf-8"?>
<!-- Generator: Adobe Illustrator 26.3.1, SVG Export Plug-In . SVG Version: 6.00 Build 0)  -->
<svg version="1.1" id="Layer_1" xmlns="http://www.w3.org/2000/svg" xmlns:xlink="http://www.w3.org/1999/xlink" x="0px" y="0px"
	 viewBox="0 0 506 506" style="enable-background:new 0 0 506 506;" xml:space="preserve">
<style type="text/css">
	.st0{fill:#1E1E2D;}
	.st1{fill:#019EF7;}
	.st2{display:none;}
	.st3{display:inline;fill:#019EF7;}
</style>
<g id="Logolu_Tasarım">
	<g id="_x23_f50021ff">
		<g>
			<path class="st0" d="M35.7,11.8C16.1,11.8,0,27.7,0,47.1v42C0,96.9,6.3,103,14.2,103s14.2-6.3,14.2-13.9V61.3
				c0-11.6,9.5-21.1,21.3-21.1h29.6c7.8,0,14.2-6.3,14.2-13.9c0-7.8-6.3-14.2-14.2-14.2C79.4,11.8,35.7,11.8,35.7,11.8z
				 M470.3,493.5c19.6,0,35.7-15.8,35.7-35.3v-41.8c0-7.8-6.3-14.2-14.2-14.2c-7.8,0-14.2,6.3-14.2,14.2v27.9
				c0,11.6-9.5,21.1-21.3,21.1h-29.6c-7.8,0-14.2,6.3-14.2,13.9c0,7.8,6.3,14.2,14.2,13.9L470.3,493.5L470.3,493.5z M504.5,45.6
				c0-19.4-16.1-35.1-35.7-35.1h-42.7c-7.8,0-14.2,6.3-14.2,13.9c0,7.8,6.3,14.2,14.2,13.9h28.3c11.8,0,21.5,9.5,21.5,21.1v29.2
				c0,7.8,6.3,14.2,14.2,13.9c7.8,0,14.2-6.3,14.2-14.2C504.7,88.7,504.5,45.6,504.5,45.6z M1.5,459.7c0,19.4,16.1,35.1,35.7,35.1
				h42.7c7.8,0,14.2-6.3,14.2-14.2c0-7.8-6.3-13.9-14.2-13.9H51.6c-11.8,0-21.5-9.5-21.5-21.1v-28.9c0-7.8-6.3-13.9-14.2-13.9
				S1.7,409,1.7,416.6L1.5,459.7L1.5,459.7z"/>
			<path class="st0" d="M123,390.2c8.2,0,15-6.8,15-14.8c0-8.2-6.8-14.8-15.2-14.8c-8.2,0-15,6.8-15,14.8
				C108,383.7,114.7,390.4,123,390.2z"/>
			<path class="st0" d="M67.4,305.1c7-0.4,13.9,0,21.1-0.2c30.4,0,60.8,0,91.3,0c7,0,13.1,6.3,13.3,13.3c0,36.3,0,72.9,0,109.2
				c0,5.3-3.6,10.6-8.5,12.7c-3,1.3-6.5,1.1-9.7,1.1c-33.6,0-67,0-100.6,0c-3.4,0-7,0.2-10.1-1.5c-4.6-2.1-7.8-7.2-7.6-12.3
				c0-36.3,0-72.9,0-109.2C56.4,312.1,61.3,306.1,67.4,305.1 M83.9,332.1c0,27.3,0,54.5,0,81.8c3.6,0.4,7.2,0.2,10.8,0.2
				c23.7,0,47.5,0,71.2,0c0-27.3,0-54.5,0-81.8C138.4,332.1,111.1,332.1,83.9,332.1z"/>
			<g>
				<g id="_x23_000000ff_00000155850177160897033970000013860764261819053723_">
					<path class="st0" d="M91.7,61.9h68.9c2.5,0,5.3,1.1,7.2,3c2.3,2.5,3.8,5.9,5.7,8.9c3.4,6.8,10.8,9.5,16.5,14.4
						c2.1,1.9,3.4,4.6,3.4,7.4V165c0,0.6,0,1.5-0.2,1.9c-3,14.8-14.8,27.7-29.8,30.8c-0.6,0.2-1.5,0.2-2.3,0.2H90
						c-3.2,0-6.3-1.5-8.2-4c-2.1-3.2-4-6.5-6.3-9.9c-0.4-0.6-1.3-1.7-1.9-2.1c-5.3-4.2-11.8-7.2-15.4-12.7c-1.1-1.5-1.5-3.4-1.5-5.3
						v-63.8c0-0.2,0-0.6,0-1.1C58.5,80.7,73.3,64.5,91.7,61.9 M78,102.7c-0.2,17.1,0,34,0,50.9c0,3.4,1.7,6.5,4.2,8.5
						c4.6,3.4,8.7,7.4,12,12c1.9,2.5,4.9,4.2,8.2,4.2c17.5,0,34.9,0.2,52.2,0c10.6,0.4,19-10.1,18.2-20.1c0.2-16.7,0-33.6,0-50.7
						c0-3.4-1.7-6.5-4.2-8.5c-4.6-3.4-8.7-7.2-12-12c-1.9-2.5-4.9-4.2-8.2-4.2c-17.1,0-33.8,0-50.9,0C87,82,78,92.1,78,102.7z"/>
				</g>
				<g id="_x23_000000ff_00000008845157650972756610000005489687574363342489_">
					<path class="st1" d="M105.2,98h37.2c1.7,0,3.2,0.6,3.8,1.9c2.3,3.8,5.7,7,9.5,9.5c1.3,1.1,1.9,2.3,1.9,3.8v38.2
						c0,0.4,0,0.6,0,1.3c-1.1,4-3.8,7-7.2,9.1c-0.6,0.4-1.7,0.6-2.3,0.6h-39.3c-1.5,0-3-0.6-3.8-1.9c-2.5-3.8-5.7-7-9.5-9.3
						c-1.3-1.1-2.1-2.3-2.1-3.8v-36.3c0.4-6.3,4.9-11.4,10.8-12.7C104.6,98,104.8,98,105.2,98z"/>
				</g>
				<g id="_x23_000000ff_00000064315212204583216980000015304135366155904645_" class="st2">
					<path class="st3" d="M330.2,61.7h77.1c3.4,0,6.5,1.5,8,4c5.1,8,11.8,14.4,19.9,19.9c2.5,1.9,4,5.1,4,8v79c0,1.1,0,1.5,0,2.5
						c-1.9,8.5-8,14.4-15,18.8c-1.5,1.1-3.4,1.5-5.1,1.5h-81.6c-3,0-5.9-1.5-8-4c-5.5-8-11.8-14.4-19.9-19.4c-2.5-1.9-4.4-5.1-4.4-8
						V88.5c1.1-12.9,9.9-23.9,22.4-26.4C328.7,61.7,329.2,61.7,330.2,61.7z"/>
				</g>
			</g>
		</g>
	</g>
	<g id="_x23_000000ff">
		<path class="st0" d="M328.7,52.8c19.7-5.4,41.2-3.9,59.8,4.6c29.6,13.2,51,42.7,54.7,74.8c1.4,13.4,0.5,27,0.8,40.5
			c6.5,0.3,13,2.4,17.6,7.2c4.8,4.7,7.2,11.5,7.1,18.2c0,41.5,0,83,0,124.5c-0.1,4.9,0.3,9.9-1.3,14.7c-2.5,7.8-9.3,14.1-17.3,16
			c-4.9,1.1-10,0.7-15.1,0.8c-55.9,0-111.7,0-167.6,0c-6.3,0-12.9,0.5-18.8-2.3c-8.4-3.8-13.9-12.7-13.9-21.8
			c-0.1-43.6,0-87.2-0.1-130.8c-0.2-6.3,1.5-12.8,5.8-17.6c4.8-5.8,12.3-8.8,19.7-8.6c47.9,0.1,95.8-0.2,143.7-0.1
			c0-10.1,0-20.1,0-30.2c0-6.8-0.9-13.7-3.4-20c-4.3-11.4-13.1-20.7-23.6-26.8c-12.9-7-29-8.4-42.6-2.6c-18.8,7.2-32,26.4-32.9,46.4
			c-0.4,3.3,0,7.2-2.7,9.7c-2.5,2.6-6.4,2.3-9.7,2.3c-6.7-0.1-13.5,0.2-20.3-0.1c-3.8,0-7.3-3-7.5-6.9c-0.8-17.7,3.8-35.5,13-50.6
			C286.2,73.9,306.1,58.8,328.7,52.8 M345.8,229.5c-8.2,2.4-14.6,9.7-16,18.1c-1.2,7,1.1,14.6,6.4,19.5c2,2.1,4.9,3.9,4.7,7.1
			c0.3,9.9-0.2,19.9,0.2,29.8c0,6.4,6.4,11.7,12.7,10.7c5-0.5,9.6-4.6,9.6-9.8c0.4-10.2-0.1-20.4,0.2-30.6c-0.1-4,4-5.9,6.2-8.6
			c5.6-6.2,6.3-15.7,3.3-23.3C368.9,232.1,356.5,226.2,345.8,229.5z"/>
		<path class="st1" d="M247.5,379.4c0-1.6,1.3-3.1,3-3.2c1.8-0.2,3.5,1.3,3.5,3.2c0.1,3.2,0,6.4,0,9.7c2.8-1.6,5.5-3.2,8.2-4.7
			c1.5-0.9,3.7-0.4,4.6,1.2c0.9,1.5,0.3,3.5-1.2,4.4c-2.7,1.7-5.6,3.3-8.4,4.9c2.7,1.6,5.5,3.1,8.2,4.8c1.3,0.7,2.1,2.4,1.6,3.9
			c-0.5,1.9-3,2.9-4.7,1.9c-2.9-1.5-5.6-3.2-8.4-4.8c-0.1,3.3,0.1,6.5-0.1,9.8c-0.1,1.8-1.8,3.2-3.5,3c-1.5-0.1-2.9-1.5-2.9-3
			c-0.2-3.3,0-6.5-0.1-9.8c-2.7,1.5-5.4,3.2-8.2,4.7c-1.3,0.7-3,0.7-4-0.4c-1.5-1.3-1.3-4,0.4-5.1c2.8-1.8,5.7-3.3,8.5-5
			c-2.4-1.4-4.8-2.8-7.3-4.2c-1.1-0.6-2.4-1.4-2.6-2.8c-0.4-1.6,0.7-3.5,2.3-3.9c1.3-0.4,2.6,0.3,3.7,1c2.4,1.4,4.7,2.8,7.1,4.1
			C247.5,385.9,247.3,382.6,247.5,379.4z"/>
		<path class="st1" d="M310.2,379.3c0-1.8,1.8-3.3,3.6-3.1c1.5,0.1,2.9,1.5,2.9,3.1c0.2,3.2,0,6.5,0.1,9.7c2.8-1.6,5.5-3.3,8.4-4.8
			c1.6-0.9,3.9-0.2,4.6,1.6c0.7,1.5,0,3.4-1.4,4.2c-2.7,1.7-5.5,3.2-8.2,4.8c2.7,1.6,5.5,3.1,8.2,4.8c1.4,0.8,2.2,2.6,1.6,4.2
			c-0.7,1.8-3,2.6-4.7,1.6c-2.8-1.5-5.5-3.2-8.3-4.8c0,3,0,6.1,0,9.1c0,1.1-0.3,2.2-1.1,2.9c-1.3,1.2-3.5,1-4.6-0.4
			c-0.9-0.9-0.8-2.3-0.8-3.5c0-2.7,0-5.5,0-8.2c-2.4,1.4-4.7,2.7-7.1,4.1c-1.1,0.6-2.3,1.4-3.7,1c-1.8-0.4-2.9-2.4-2.3-4.1
			c0.3-1.3,1.5-2,2.6-2.6c2.4-1.4,4.8-2.8,7.3-4.2c-2.7-1.6-5.5-3.1-8.2-4.8c-1.5-0.8-2.2-2.7-1.5-4.3c0.7-1.7,3-2.4,4.6-1.5
			c2.8,1.5,5.6,3.2,8.4,4.8C310.2,385.8,310,382.5,310.2,379.3z"/>
		<path class="st1" d="M372.8,379.3c0-1.8,1.9-3.3,3.7-3.1c1.5,0.2,2.8,1.5,2.8,3.1c0.2,3.2,0,6.5,0.1,9.7c2.4-1.4,4.8-2.8,7.2-4.2
			c1-0.6,2.2-1.2,3.5-0.9c1.8,0.3,2.9,2.3,2.4,4c-0.3,1.3-1.4,2-2.5,2.6c-2.5,1.4-4.9,2.8-7.3,4.3c2.4,1.4,4.8,2.8,7.3,4.2
			c1,0.6,2.2,1.3,2.5,2.6c0.5,1.7-0.6,3.7-2.3,4.1c-1.3,0.4-2.6-0.4-3.7-1c-2.4-1.4-4.7-2.8-7.1-4.1c0,3.2,0.1,6.4,0,9.6
			c0,1.7-1.5,3.3-3.2,3.2c-1.7,0-3.3-1.5-3.3-3.3c-0.1-3.2,0-6.4,0-9.6c-2.8,1.6-5.5,3.3-8.3,4.8c-1.7,1-4,0.2-4.7-1.6
			c-0.7-1.5,0.1-3.4,1.6-4.1c2.7-1.6,5.4-3.2,8.2-4.8c-2.7-1.6-5.5-3.2-8.2-4.8c-1.4-0.8-2.1-2.7-1.4-4.2c0.7-1.7,2.9-2.5,4.6-1.6
			c2.9,1.5,5.6,3.2,8.4,4.8C372.8,385.8,372.6,382.5,372.8,379.3z"/>
		<path class="st1" d="M437.8,376.3c1.8-0.6,4,0.8,4.1,2.8c0.2,3.3,0,6.6,0.1,9.9c2.6-1.5,5.1-3,7.7-4.5c1.1-0.7,2.6-1,3.8-0.3
			c2,1,2.3,4.2,0.4,5.5c-2.8,1.8-5.8,3.4-8.6,5.1c2.7,1.6,5.5,3.2,8.2,4.8c1.5,0.8,2.1,2.8,1.4,4.3c-0.7,1.6-2.9,2.4-4.4,1.5
			c-2.9-1.5-5.6-3.3-8.5-4.9c0,3.2,0.1,6.3,0,9.5c0,1.5-1.1,3-2.6,3.3c-1.8,0.5-3.8-1-3.9-2.9c-0.2-3.3,0-6.6-0.1-9.9
			c-2.7,1.5-5.4,3.2-8.1,4.7c-1.3,0.8-3.2,0.7-4.3-0.5c-1.4-1.4-1-3.9,0.6-4.9c2.8-1.8,5.7-3.3,8.5-5c-2.8-1.7-5.6-3.2-8.3-4.9
			c-1.6-0.9-2.1-3.1-1.1-4.6c0.9-1.5,3-1.9,4.4-1c2.8,1.5,5.5,3.2,8.3,4.8c0-3.2-0.1-6.4,0-9.6C435.5,378,436.4,376.7,437.8,376.3z"
			/>
		<path class="st0" d="M228.7,428.9c0.3-1.5,1.7-2.4,3.2-2.2c12.4,0,24.8,0,37.2,0c1.1,0,2.5,0,3.2,1.1c0.7,1.1,0.5,2.5,0.5,3.7
			c-0.1,1.6,0.2,3.2-0.4,4.8c-0.6,1.3-2.2,1.3-3.4,1.3c-12.4,0-24.8,0-37.2,0c-1.4,0.1-2.7-0.7-3.1-2.1V428.9z"/>
		<path class="st0" d="M293.7,426.7c12.3-0.2,24.7,0,37-0.1c1.1,0,2.2-0.1,3.2,0.2c1,0.3,1.6,1.3,1.6,2.3c0.1,2,0.1,4.1,0,6.1
			c-0.1,1.4-1.5,2.3-2.9,2.2c-12.4,0-24.8,0-37.2,0c-1.1,0-2.3,0.1-3.1-0.7c-0.9-0.8-0.8-2-0.8-3.1c0-1.6-0.1-3.3,0.1-4.9
			C291.6,427.7,292.6,426.8,293.7,426.7z"/>
		<path class="st0" d="M356.2,426.7c12.5-0.2,25,0,37.5-0.1c1.3,0,2.9-0.2,3.8,1c0.8,1.1,0.5,2.6,0.6,3.8c-0.1,1.5,0.2,3.2-0.3,4.7
			c-0.5,1.3-2,1.5-3.2,1.4c-12.6,0-25.1,0-37.7,0c-1.3,0.1-2.6-0.7-2.8-2c-0.2-2.1-0.1-4.2-0.1-6.3C354,427.9,355,426.8,356.2,426.7
			z"/>
		<path class="st0" d="M416.8,428.7c0.1-1.6,1.9-2.2,3.2-2.1c12.5,0,25.1,0,37.6,0c1.4-0.1,2.6,0.7,3.1,1.9v6.6
			c-0.3,1.8-2,2.5-3.6,2.3c-12.4,0-24.8,0-37.2,0c-1.3,0.1-3-0.5-3.1-2C416.5,433.2,416.6,431,416.8,428.7z"/>
	</g>
</g>
<g>
	<path class="st0" d="M252.4,95.5l0.2,75c0,7.4-6.1,13.3-13.5,13.3c-7.7,0-13.5-5.9-13.5-13.3l-0.2-75c0-7.4,6.1-13.3,13.5-13.3
		c3.6,0,7,1.4,9.7,4c1.4,1.2,2.3,2.7,2.9,4.4C252,92.2,252.4,93.8,252.4,95.5L252.4,95.5z M127.4,252.3l76.2-0.2
		c7.4,0,13.5,5.9,13.7,13.3c0,7.4-6.1,13.3-13.5,13.3l-76.2,0.2c-7.4,0-13.5-5.9-13.7-13.3c0-1.7,0.4-3.6,1-5.1
		c0.7-1.7,1.7-3.1,2.9-4.4C120.4,253.8,123.8,252.3,127.4,252.3z M225.1,157.2v57.3c0,7.4-6.1,13.3-13.5,13.3
		c-7.7,0-13.7-5.9-13.7-13.3v-43.8c0-1.7,0.4-3.6,1-5.1c0.7-1.7,1.7-3.1,2.9-4.4c2.7-2.4,6.1-4,9.7-4H225.1L225.1,157.2z"/>
	<path class="st0" d="M252.4,157.2v13.3c0,7.4-6.1,13.3-13.5,13.3h-27.4c-7.4,0-13.5-5.9-13.5-13.3c0-1.7,0.4-3.6,1-5.1
		c0.7-1.7,1.7-3.1,2.9-4.4c2.7-2.4,6.1-4,9.7-4L252.4,157.2L252.4,157.2z M251,106.1v13.3c0,7.4-6.1,13.3-13.5,13.3h-27.4
		c-7.4,0-13.5-5.9-13.5-13.3c0-1.7,0.4-3.6,1-5.1c0.7-1.7,1.7-3.1,2.9-4.4c2.7-2.4,6.1-4,9.7-4C210.1,106.1,251,106.1,251,106.1z
		 M161.8,278l-13.5,0.2c-7.4,0-13.7-5.9-13.7-13.3l-0.2-27c0-7.4,6.1-13.5,13.5-13.5c3.6,0,7,1.4,9.7,3.8c1.4,1.2,2.3,2.7,3.1,4.1
		c0.7,1.7,1.2,3.4,1.2,5.1C161.3,237.6,161.8,278,161.8,278z M106.3,238.9c0,1.7-0.4,3.6-1,5.1c-0.7,1.7-1.7,3.1-2.9,4.4
		c-2.7,2.7-6.1,4-9.6,4L79,252.6l-27.2,0.2v-1.9l-0.2-11.4c0-1.9,0.4-3.6,1-5.3c0.7-1.7,1.7-3.2,2.9-4.4c1.4-1.4,2.7-2.3,4.4-2.9
		c1.7-0.5,3.4-1,5.1-0.7h2.3l25.2-0.2C100,225.6,106.1,231.3,106.3,238.9C106.3,238.7,106.3,238.9,106.3,238.9z"/>
	<path class="st0" d="M79.1,239.1v13.3V266c0,7.4-6.1,13.3-13.7,13.3c-3.6,0-7-1.4-9.6-4c-1.4-1.2-2.3-2.7-2.9-4.4
		c-0.7-1.7-1-3.4-1-5.1v-15.2v-13.7c0.5-3.2,2.3-6.1,4.8-8.2c2.4-2.1,5.5-3.2,8.6-3.1h2.3c3.2,0.4,6.1,1.9,8.2,4.4
		C77.7,232.6,78.9,235.9,79.1,239.1z"/>
	<path class="st0" d="M196.7,252.1h13.5c7.4,0,13.7,5.9,13.7,13.3v27c0,7.4-6.1,13.3-13.5,13.5c-3.6,0-7-1.4-9.7-3.8
		c-1.4-1.2-2.3-2.7-3.1-4.4c-0.7-1.7-1.2-3.4-1.2-5.1C196.7,292.5,196.7,252.1,196.7,252.1z"/>
</g>
</svg>
